#!OML:ASF H:\Terrain\Patient Classification 1\Animal1\Tuesday\Animal1.ASF
:FULLY-SPECIFIED
:DEGREES
3225
root 12.3439 16.3231 -13.7993 12.7589 -14.338 2.35815
lowerback 10.7099 -2.16558 1.4615
upperback 9.71538 -3.09542 8.58076
thorax 4.7269 -1.8711 8.5387
lowerneck -4.18282 -5.08218 -8.64867
upperneck 0.11821 -6.97207 22.3289
head 1.91744 -3.25516 8.07808
rclavicle -2.06736e-014 -9.54166e-014
rhumerus -118.984 78.5118 -145.764
rradius 70.3452
rwrist -24.6002
rhand -13.3471 22.7818
rfingers 7.12502
rthumb 12.7586 -6.80833
lclavicle -2.06736e-014 -9.54166e-014
lhumerus 19.0565 -29.6919 74.9574
lradius 33.4319
lwrist -38.7349
lhand 4.83665 44.0401
lfingers 7.12502
lthumb 30.2142 71.5884
rfemur -32.2642 12.5095 11.6529
rtibia 32.0054
rfoot -5.47643 -20.3932
rtoes -12.6908
lfemur -22.2299 -11.9318 -9.48861
ltibia 19.4576
lfoot -8.36349 16.6065
ltoes -26.5554
3226
root 12.3512 16.3243 -13.8101 12.7909 -14.5066 2.56267
lowerback 10.8014 -2.13078 1.37337
upperback 9.8452 -3.06508 8.6469
thorax 4.82645 -1.8706 8.6677
lowerneck -4.45589 -5.23027 -8.47211
upperneck 0.0464291 -7.15249 22.0654
head 1.95518 -3.33457 7.94146
rclavicle 1.59028e-014 7.15625e-014
rhumerus -115.618 80.4449 -143.364
rradius 68.6159
rwrist -23.8487
rhand -15.0388 23.9599
rfingers 7.12502
rthumb 11.1274 -5.72506
lclavicle 1.59028e-014 7.15625e-014
lhumerus 19.9266 -28.2885 76.4663
lradius 33.1627
lwrist -38.5724
lhand 4.15142 43.976
lfingers 7.12502
lthumb 29.5603 71.642
rfemur -32.499 12.5155 11.3353
rtibia 32.0645
rfoot -6.29039 -20.1266
rtoes -9.9045
lfemur -22.3051 -11.8563 -9.69728
ltibia 19.3849
lfoot -8.09858 16.5473
ltoes -26.7474
3227
root 12.3559 16.3301 -13.817 12.7368 -14.7467 2.8019
lowerback 10.918 -2.00161 1.28216
upperback 9.98112 -2.90826 8.6942
thorax 4.89804 -1.80516 8.77047
lowerneck -4.32939 -5.40022 -8.24363
upperneck -0.395441 -7.31729 21.838
head 1.8141 -3.44722 7.82103
rclavicle 4.45278e-014 -4.45278e-014
rhumerus -108.431 82.0573 -137.019
rradius 66.7913
rwrist -22.7277
rhand -15.5751 23.843
rfingers 7.12502
rthumb 10.61 -5.86913
lclavicle 4.45278e-014 -4.45278e-014
lhumerus 20.7008 -27.4072 77.9218
lradius 33.2425
lwrist -38.026
lhand 3.99331 44.1249
lfingers 7.12502
lthumb 29.4093 71.8175
rfemur -32.6663 12.564 11.0046
rtibia 32.1637
rfoot -6.90414 -19.8575
rtoes -7.72248
lfemur -22.1736 -11.8064 -9.98566
ltibia 19.2205
lfoot -7.80726 16.5835
ltoes -27.0021
3228
root 12.3632 16.3339 -13.8213 12.7484 -14.9475 3.02625
lowerback 11.0219 -2.01316 1.09194
upperback 10.0691 -2.94569 8.83995
thorax 4.96848 -1.84942 9.0546
lowerneck -4.51286 -5.46891 -8.06449
upperneck -0.434832 -7.38618 21.2749
head 1.81085 -3.47737 7.59597
rclavicle -3.33958e-014 4.77083e-015
rhumerus -100.382 83.8816 -129.768
rradius 64.8755
rwrist -21.6059
rhand -14.8296 22.6696
rfingers 7.12502
rthumb 11.3291 -7.00442
lclavicle -3.33958e-014 4.77083e-015
lhumerus 21.2169 -26.492 79.2917
lradius 33.6437
lwrist -36.9358
lhand 3.43481 44.7157
lfingers 7.12502
lthumb 28.876 72.5007
rfemur -32.9089 12.5325 10.7146
rtibia 32.3058
rfoot -6.80226 -19.825
rtoes -8.3263
lfemur -22.0911 -11.7693 -10.2532
ltibia 18.9841
lfoot -7.49723 16.6553
ltoes -27.6682
3229
root 12.3715 16.3349 -13.8257 12.9201 -15.1325 3.15347
lowerback 11.0157 -2.11856 0.907896
upperback 10.1138 -3.11415 9.062
thorax 5.08152 -1.96455 9.42651
lowerneck -4.99171 -5.48889 -7.93396
upperneck -0.12377 -7.42343 20.4807
head 1.94382 -3.46196 7.29808
rclavicle -9.54166e-015 -6.36111e-015
rhumerus -88.0666 85.8791 -118.44
rradius 62.7014
rwrist -20.5728
rhand -13.0255 21.6565
rfingers 7.12502
rthumb 13.0686 -7.91409
lclavicle -9.54166e-015 -6.36111e-015
lhumerus 21.6995 -25.5379 80.5774
lradius 34.0248
lwrist -35.6348
lhand 2.98328 45.39
lfingers 7.12502
lthumb 28.4446 73.248
rfemur -33.2852 12.449 10.5144
rtibia 32.3861
rfoot -6.44668 -19.7665
rtoes -10.051
lfemur -22.2412 -11.6842 -10.3821
ltibia 18.8545
lfoot -7.62538 16.6705
ltoes -26.7311
